{
    "asset" : {
        "generator" : "Khronos glTF Blender I/O v1.8.19",
        "version" : "2.0"
    },
    "scene" : 0,
    "scenes" : [
        {
            "name" : "Scene",
            "nodes" : [
                0
            ]
        }
    ],
    "nodes" : [
        {
            "mesh" : 0,
            "name" : "swordPedistill"
        }
    ],
    "materials" : [
        {
            "doubleSided" : true,
            "name" : "stoneLight",
            "pbrMetallicRoughness" : {
                "baseColorFactor" : [
                    0.03411146253347397,
                    0.03411146253347397,
                    0.03411146253347397,
                    1
                ],
                "metallicFactor" : 0,
                "roughnessFactor" : 0.8394495248794556
            }
        },
        {
            "doubleSided" : true,
            "name" : "stoneDark.",
            "pbrMetallicRoughness" : {
                "baseColorFactor" : [
                    0.004255167208611965,
                    0.004255167208611965,
                    0.004255167208611965,
                    1
                ],
                "metallicFactor" : 0,
                "roughnessFactor" : 0.46330273151397705
            }
        }
    ],
    "meshes" : [
        {
            "name" : "Cylinder",
            "primitives" : [
                {
                    "attributes" : {
                        "POSITION" : 0,
                        "NORMAL" : 1,
                        "TEXCOORD_0" : 2
                    },
                    "indices" : 3,
                    "material" : 0
                },
                {
                    "attributes" : {
                        "POSITION" : 4,
                        "NORMAL" : 5,
                        "TEXCOORD_0" : 6
                    },
                    "indices" : 7,
                    "material" : 1
                }
            ]
        }
    ],
    "accessors" : [
        {
            "bufferView" : 0,
            "componentType" : 5126,
            "count" : 327,
            "max" : [
                1,
                0.5750000476837158,
                1
            ],
            "min" : [
                -1,
                -0.02500000037252903,
                -1
            ],
            "type" : "VEC3"
        },
        {
            "bufferView" : 1,
            "componentType" : 5126,
            "count" : 327,
            "type" : "VEC3"
        },
        {
            "bufferView" : 2,
            "componentType" : 5126,
            "count" : 327,
            "type" : "VEC2"
        },
        {
            "bufferView" : 3,
            "componentType" : 5123,
            "count" : 900,
            "type" : "SCALAR"
        },
        {
            "bufferView" : 4,
            "componentType" : 5126,
            "count" : 608,
            "max" : [
                0.7451022267341614,
                0.675000011920929,
                0.6883846521377563
            ],
            "min" : [
                -0.7451021671295166,
                0.02500000037252903,
                -0.7451022267341614
            ],
            "type" : "VEC3"
        },
        {
            "bufferView" : 5,
            "componentType" : 5126,
            "count" : 608,
            "type" : "VEC3"
        },
        {
            "bufferView" : 6,
            "componentType" : 5126,
            "count" : 608,
            "type" : "VEC2"
        },
        {
            "bufferView" : 7,
            "componentType" : 5123,
            "count" : 1932,
            "type" : "SCALAR"
        }
    ],
    "bufferViews" : [
        {
            "buffer" : 0,
            "byteLength" : 3924,
            "byteOffset" : 0
        },
        {
            "buffer" : 0,
            "byteLength" : 3924,
            "byteOffset" : 3924
        },
        {
            "buffer" : 0,
            "byteLength" : 2616,
            "byteOffset" : 7848
        },
        {
            "buffer" : 0,
            "byteLength" : 1800,
            "byteOffset" : 10464
        },
        {
            "buffer" : 0,
            "byteLength" : 7296,
            "byteOffset" : 12264
        },
        {
            "buffer" : 0,
            "byteLength" : 7296,
            "byteOffset" : 19560
        },
        {
            "buffer" : 0,
            "byteLength" : 4864,
            "byteOffset" : 26856
        },
        {
            "buffer" : 0,
            "byteLength" : 3864,
            "byteOffset" : 31720
        }
    ],
    "buffers" : [
        {
            "byteLength" : 35584,
            "uri" : "data:application/octet-stream;base64,"
        }
    ]
}
