{
    "asset" : {
        "generator" : "Khronos glTF Blender I/O v1.8.19",
        "version" : "2.0"
    },
    "scene" : 0,
    "scenes" : [
        {
            "name" : "Scene",
            "nodes" : [
                0,
                1,
                2
            ]
        }
    ],
    "nodes" : [
        {
            "mesh" : 0,
            "name" : "ghost body"
        },
        {
            "mesh" : 1,
            "name" : "ghost eues",
            "translation" : [
                0,
                0.2690265476703644,
                -0.09600485861301422
            ]
        },
        {
            "mesh" : 2,
            "name" : "ghost mouth"
        }
    ],
    "materials" : [
        {
            "doubleSided" : true,
            "emissiveFactor" : [
                0.04489301145076752,
                0.2511776387691498,
                0.3757500946521759
            ],
            "name" : "GHOST BLENDER ",
            "pbrMetallicRoughness" : {
                "baseColorFactor" : [
                    0.09950219094753265,
                    0.5104394555091858,
                    0.8000000715255737,
                    1
                ],
                "metallicFactor" : 0
            }
        },
        {
            "doubleSided" : true,
            "name" : "Material.003",
            "pbrMetallicRoughness" : {
                "baseColorFactor" : [
                    0,
                    0,
                    0,
                    1
                ],
                "metallicFactor" : 0
            }
        }
    ],
    "meshes" : [
        {
            "name" : "Sphere",
            "primitives" : [
                {
                    "attributes" : {
                        "POSITION" : 0,
                        "NORMAL" : 1,
                        "TEXCOORD_0" : 2
                    },
                    "indices" : 3,
                    "material" : 0
                }
            ]
        },
        {
            "name" : "Sphere.001",
            "primitives" : [
                {
                    "attributes" : {
                        "POSITION" : 4,
                        "NORMAL" : 5,
                        "TEXCOORD_0" : 6
                    },
                    "indices" : 7,
                    "material" : 1
                }
            ]
        },
        {
            "name" : "Cube",
            "primitives" : [
                {
                    "attributes" : {
                        "POSITION" : 8,
                        "NORMAL" : 9,
                        "TEXCOORD_0" : 10
                    },
                    "indices" : 11,
                    "material" : 1
                }
            ]
        }
    ],
    "accessors" : [
        {
            "bufferView" : 0,
            "componentType" : 5126,
            "count" : 9252,
            "max" : [
                0.9872307777404785,
                0.9975767135620117,
                0.9869827032089233
            ],
            "min" : [
                -0.9873363375663757,
                -1.0111122131347656,
                -0.9905577898025513
            ],
            "type" : "VEC3"
        },
        {
            "bufferView" : 1,
            "componentType" : 5126,
            "count" : 9252,
            "type" : "VEC3"
        },
        {
            "bufferView" : 2,
            "componentType" : 5126,
            "count" : 9252,
            "type" : "VEC2"
        },
        {
            "bufferView" : 3,
            "componentType" : 5123,
            "count" : 47616,
            "type" : "SCALAR"
        },
        {
            "bufferView" : 4,
            "componentType" : 5126,
            "count" : 1028,
            "max" : [
                0.47816309332847595,
                0.5286967754364014,
                0.956525444984436
            ],
            "min" : [
                -0.7074737548828125,
                -0.01625901460647583,
                0.46317920088768005
            ],
            "type" : "VEC3"
        },
        {
            "bufferView" : 5,
            "componentType" : 5126,
            "count" : 1028,
            "type" : "VEC3"
        },
        {
            "bufferView" : 6,
            "componentType" : 5126,
            "count" : 1028,
            "type" : "VEC2"
        },
        {
            "bufferView" : 7,
            "componentType" : 5123,
            "count" : 5760,
            "type" : "SCALAR"
        },
        {
            "bufferView" : 8,
            "componentType" : 5126,
            "count" : 376,
            "max" : [
                0.3394163250923157,
                0.14177827537059784,
                1.0345314741134644
            ],
            "min" : [
                -0.3292028605937958,
                -0.18182054162025452,
                0.8375528454780579
            ],
            "type" : "VEC3"
        },
        {
            "bufferView" : 9,
            "componentType" : 5126,
            "count" : 376,
            "type" : "VEC3"
        },
        {
            "bufferView" : 10,
            "componentType" : 5126,
            "count" : 376,
            "type" : "VEC2"
        },
        {
            "bufferView" : 11,
            "componentType" : 5123,
            "count" : 1728,
            "type" : "SCALAR"
        }
    ],
    "bufferViews" : [
        {
            "buffer" : 0,
            "byteLength" : 111024,
            "byteOffset" : 0
        },
        {
            "buffer" : 0,
            "byteLength" : 111024,
            "byteOffset" : 111024
        },
        {
            "buffer" : 0,
            "byteLength" : 74016,
            "byteOffset" : 222048
        },
        {
            "buffer" : 0,
            "byteLength" : 95232,
            "byteOffset" : 296064
        },
        {
            "buffer" : 0,
            "byteLength" : 12336,
            "byteOffset" : 391296
        },
        {
            "buffer" : 0,
            "byteLength" : 12336,
            "byteOffset" : 403632
        },
        {
            "buffer" : 0,
            "byteLength" : 8224,
            "byteOffset" : 415968
        },
        {
            "buffer" : 0,
            "byteLength" : 11520,
            "byteOffset" : 424192
        },
        {
            "buffer" : 0,
            "byteLength" : 4512,
            "byteOffset" : 435712
        },
        {
            "buffer" : 0,
            "byteLength" : 4512,
            "byteOffset" : 440224
        },
        {
            "buffer" : 0,
            "byteLength" : 3008,
            "byteOffset" : 444736
        },
        {
            "buffer" : 0,
            "byteLength" : 3456,
            "byteOffset" : 447744
        }
    ],
    "buffers" : [
        {
            "byteLength" : 451200,
            "uri" : "data:application/octet-stream;base64,"
        }
    ]
}
