{
    "asset" : {
        "generator" : "Khronos glTF Blender I/O v1.8.19",
        "version" : "2.0"
    },
    "scene" : 0,
    "scenes" : [
        {
            "name" : "Scene",
            "nodes" : [
                0,
                1
            ]
        }
    ],
    "nodes" : [
        {
            "mesh" : 0,
            "name" : "ladder col",
            "translation" : [
                0,
                0,
                0.10039672255516052
            ]
        },
        {
            "mesh" : 1,
            "name" : "ladder mesh",
            "translation" : [
                0,
                0,
                0.10039672255516052
            ]
        }
    ],
    "materials" : [
        {
            "doubleSided" : true,
            "name" : "ladder light Brown",
            "pbrMetallicRoughness" : {
                "baseColorFactor" : [
                    0.25303515791893005,
                    0.17479616403579712,
                    0.07806912809610367,
                    1
                ],
                "metallicFactor" : 0
            }
        },
        {
            "doubleSided" : true,
            "name" : "ladder dark Brown",
            "pbrMetallicRoughness" : {
                "baseColorFactor" : [
                    0.05921801179647446,
                    0.04230353236198425,
                    0.020693762227892876,
                    1
                ],
                "metallicFactor" : 0
            }
        }
    ],
    "meshes" : [
        {
            "name" : "Cube.008",
            "primitives" : [
                {
                    "attributes" : {
                        "POSITION" : 0,
                        "NORMAL" : 1,
                        "TEXCOORD_0" : 2
                    },
                    "indices" : 3
                }
            ]
        },
        {
            "name" : "Cube.009",
            "primitives" : [
                {
                    "attributes" : {
                        "POSITION" : 4,
                        "NORMAL" : 5,
                        "TEXCOORD_0" : 6
                    },
                    "indices" : 7,
                    "material" : 0
                },
                {
                    "attributes" : {
                        "POSITION" : 8,
                        "NORMAL" : 9,
                        "TEXCOORD_0" : 10
                    },
                    "indices" : 11,
                    "material" : 1
                }
            ]
        }
    ],
    "accessors" : [
        {
            "bufferView" : 0,
            "componentType" : 5126,
            "count" : 528,
            "max" : [
                0.2750000059604645,
                4.013952732086182,
                0.02500000037252903
            ],
            "min" : [
                -0.2750000059604645,
                -0.25,
                -0.02500000037252903
            ],
            "type" : "VEC3"
        },
        {
            "bufferView" : 1,
            "componentType" : 5126,
            "count" : 528,
            "type" : "VEC3"
        },
        {
            "bufferView" : 2,
            "componentType" : 5126,
            "count" : 528,
            "type" : "VEC2"
        },
        {
            "bufferView" : 3,
            "componentType" : 5123,
            "count" : 792,
            "type" : "SCALAR"
        },
        {
            "bufferView" : 4,
            "componentType" : 5126,
            "count" : 1044,
            "max" : [
                0.272916704416275,
                4.0082502365112305,
                0.022916670888662338
            ],
            "min" : [
                -0.272916704416275,
                -0.24429720640182495,
                -0.022916670888662338
            ],
            "type" : "VEC3"
        },
        {
            "bufferView" : 5,
            "componentType" : 5126,
            "count" : 1044,
            "type" : "VEC3"
        },
        {
            "bufferView" : 6,
            "componentType" : 5126,
            "count" : 1044,
            "type" : "VEC2"
        },
        {
            "bufferView" : 7,
            "componentType" : 5123,
            "count" : 4032,
            "type" : "SCALAR"
        },
        {
            "bufferView" : 8,
            "componentType" : 5126,
            "count" : 870,
            "max" : [
                0.2459876537322998,
                3.622917413711548,
                0.022916670888662338
            ],
            "min" : [
                -0.245987668633461,
                -0.022916672751307487,
                -0.022916670888662338
            ],
            "type" : "VEC3"
        },
        {
            "bufferView" : 9,
            "componentType" : 5126,
            "count" : 870,
            "type" : "VEC3"
        },
        {
            "bufferView" : 10,
            "componentType" : 5126,
            "count" : 870,
            "type" : "VEC2"
        },
        {
            "bufferView" : 11,
            "componentType" : 5123,
            "count" : 3360,
            "type" : "SCALAR"
        }
    ],
    "bufferViews" : [
        {
            "buffer" : 0,
            "byteLength" : 6336,
            "byteOffset" : 0
        },
        {
            "buffer" : 0,
            "byteLength" : 6336,
            "byteOffset" : 6336
        },
        {
            "buffer" : 0,
            "byteLength" : 4224,
            "byteOffset" : 12672
        },
        {
            "buffer" : 0,
            "byteLength" : 1584,
            "byteOffset" : 16896
        },
        {
            "buffer" : 0,
            "byteLength" : 12528,
            "byteOffset" : 18480
        },
        {
            "buffer" : 0,
            "byteLength" : 12528,
            "byteOffset" : 31008
        },
        {
            "buffer" : 0,
            "byteLength" : 8352,
            "byteOffset" : 43536
        },
        {
            "buffer" : 0,
            "byteLength" : 8064,
            "byteOffset" : 51888
        },
        {
            "buffer" : 0,
            "byteLength" : 10440,
            "byteOffset" : 59952
        },
        {
            "buffer" : 0,
            "byteLength" : 10440,
            "byteOffset" : 70392
        },
        {
            "buffer" : 0,
            "byteLength" : 6960,
            "byteOffset" : 80832
        },
        {
            "buffer" : 0,
            "byteLength" : 6720,
            "byteOffset" : 87792
        }
    ],
    "buffers" : [
        {
            "byteLength" : 94512,
            "uri" : "data:application/octet-stream;base64,"
        }
    ]
}
