{
    "asset" : {
        "generator" : "Khronos glTF Blender I/O v1.8.19",
        "version" : "2.0"
    },
    "scene" : 0,
    "scenes" : [
        {
            "name" : "Scene",
            "nodes" : [
                0,
                1,
                2,
                3
            ]
        }
    ],
    "nodes" : [
        {
            "mesh" : 0,
            "name" : "Cylinder"
        },
        {
            "mesh" : 1,
            "name" : "Cylinder.002",
            "translation" : [
                0.000996129121631384,
                0,
                0
            ]
        },
        {
            "mesh" : 2,
            "name" : "Cylinder.003"
        },
        {
            "mesh" : 3,
            "name" : "Cylinder.007"
        }
    ],
    "meshes" : [
        {
            "name" : "Cylinder",
            "primitives" : [
                {
                    "attributes" : {
                        "POSITION" : 0,
                        "NORMAL" : 1,
                        "TEXCOORD_0" : 2
                    },
                    "indices" : 3
                }
            ]
        },
        {
            "name" : "Cylinder.002",
            "primitives" : [
                {
                    "attributes" : {
                        "POSITION" : 4,
                        "NORMAL" : 5,
                        "TEXCOORD_0" : 6
                    },
                    "indices" : 7
                }
            ]
        },
        {
            "name" : "Cylinder.003",
            "primitives" : [
                {
                    "attributes" : {
                        "POSITION" : 8,
                        "NORMAL" : 9,
                        "TEXCOORD_0" : 10
                    },
                    "indices" : 11
                }
            ]
        },
        {
            "name" : "Cylinder.007",
            "primitives" : [
                {
                    "attributes" : {
                        "POSITION" : 12,
                        "NORMAL" : 13,
                        "TEXCOORD_0" : 14
                    },
                    "indices" : 15
                }
            ]
        }
    ],
    "accessors" : [
        {
            "bufferView" : 0,
            "componentType" : 5126,
            "count" : 9988,
            "max" : [
                0.5107269883155823,
                0.053843215107917786,
                0.02456502988934517
            ],
            "min" : [
                -0.4773736596107483,
                -0.13861049711704254,
                -0.02456502988934517
            ],
            "type" : "VEC3"
        },
        {
            "bufferView" : 1,
            "componentType" : 5126,
            "count" : 9988,
            "type" : "VEC3"
        },
        {
            "bufferView" : 2,
            "componentType" : 5126,
            "count" : 9988,
            "type" : "VEC2"
        },
        {
            "bufferView" : 3,
            "componentType" : 5123,
            "count" : 52818,
            "type" : "SCALAR"
        },
        {
            "bufferView" : 4,
            "componentType" : 5126,
            "count" : 102,
            "max" : [
                -0.1002359539270401,
                -0.00913264136761427,
                0.0015306950081139803
            ],
            "min" : [
                -0.11364257335662842,
                -0.03690537437796593,
                -0.002216093707829714
            ],
            "type" : "VEC3"
        },
        {
            "bufferView" : 5,
            "componentType" : 5126,
            "count" : 102,
            "type" : "VEC3"
        },
        {
            "bufferView" : 6,
            "componentType" : 5126,
            "count" : 102,
            "type" : "VEC2"
        },
        {
            "bufferView" : 7,
            "componentType" : 5123,
            "count" : 576,
            "type" : "SCALAR"
        },
        {
            "bufferView" : 8,
            "componentType" : 5126,
            "count" : 4521,
            "max" : [
                0.39811375737190247,
                0.021076064556837082,
                0.019849536940455437
            ],
            "min" : [
                0.18767046928405762,
                -0.015063927508890629,
                -0.019849471747875214
            ],
            "type" : "VEC3"
        },
        {
            "bufferView" : 9,
            "componentType" : 5126,
            "count" : 4521,
            "type" : "VEC3"
        },
        {
            "bufferView" : 10,
            "componentType" : 5126,
            "count" : 4521,
            "type" : "VEC2"
        },
        {
            "bufferView" : 11,
            "componentType" : 5123,
            "count" : 17376,
            "type" : "SCALAR"
        },
        {
            "bufferView" : 12,
            "componentType" : 5126,
            "count" : 662,
            "max" : [
                -0.13420715928077698,
                0.04738952964544296,
                0.0055876970291137695
            ],
            "min" : [
                -0.15762856602668762,
                0.029871761798858643,
                -0.0055876970291137695
            ],
            "type" : "VEC3"
        },
        {
            "bufferView" : 13,
            "componentType" : 5126,
            "count" : 662,
            "type" : "VEC3"
        },
        {
            "bufferView" : 14,
            "componentType" : 5126,
            "count" : 662,
            "type" : "VEC2"
        },
        {
            "bufferView" : 15,
            "componentType" : 5123,
            "count" : 2016,
            "type" : "SCALAR"
        }
    ],
    "bufferViews" : [
        {
            "buffer" : 0,
            "byteLength" : 119856,
            "byteOffset" : 0
        },
        {
            "buffer" : 0,
            "byteLength" : 119856,
            "byteOffset" : 119856
        },
        {
            "buffer" : 0,
            "byteLength" : 79904,
            "byteOffset" : 239712
        },
        {
            "buffer" : 0,
            "byteLength" : 105636,
            "byteOffset" : 319616
        },
        {
            "buffer" : 0,
            "byteLength" : 1224,
            "byteOffset" : 425252
        },
        {
            "buffer" : 0,
            "byteLength" : 1224,
            "byteOffset" : 426476
        },
        {
            "buffer" : 0,
            "byteLength" : 816,
            "byteOffset" : 427700
        },
        {
            "buffer" : 0,
            "byteLength" : 1152,
            "byteOffset" : 428516
        },
        {
            "buffer" : 0,
            "byteLength" : 54252,
            "byteOffset" : 429668
        },
        {
            "buffer" : 0,
            "byteLength" : 54252,
            "byteOffset" : 483920
        },
        {
            "buffer" : 0,
            "byteLength" : 36168,
            "byteOffset" : 538172
        },
        {
            "buffer" : 0,
            "byteLength" : 34752,
            "byteOffset" : 574340
        },
        {
            "buffer" : 0,
            "byteLength" : 7944,
            "byteOffset" : 609092
        },
        {
            "buffer" : 0,
            "byteLength" : 7944,
            "byteOffset" : 617036
        },
        {
            "buffer" : 0,
            "byteLength" : 5296,
            "byteOffset" : 624980
        },
        {
            "buffer" : 0,
            "byteLength" : 4032,
            "byteOffset" : 630276
        }
    ],
    "buffers" : [
        {
            "byteLength" : 634308,
            "uri" : "data:application/octet-stream;base64,"
        }
    ]
}
