{
    "asset" : {
        "generator" : "Khronos glTF Blender I/O v1.8.19",
        "version" : "2.0"
    },
    "scene" : 0,
    "scenes" : [
        {
            "name" : "Scene",
            "nodes" : [
                0,
                1,
                2,
                3
            ]
        }
    ],
    "nodes" : [
        {
            "mesh" : 0,
            "name" : "body"
        },
        {
            "mesh" : 1,
            "name" : "eyes"
        },
        {
            "mesh" : 2,
            "name" : "Cube",
            "rotation" : [
                -0.13198477029800415,
                0,
                0,
                0.9912517666816711
            ],
            "translation" : [
                0,
                -0.16911843419075012,
                0.410901814699173
            ]
        },
        {
            "mesh" : 3,
            "name" : "horns"
        }
    ],
    "materials" : [
        {
            "doubleSided" : true,
            "name" : "demonBody",
            "pbrMetallicRoughness" : {
                "baseColorFactor" : [
                    0.07359492033720016,
                    0.004760719835758209,
                    0.18781419098377228,
                    1
                ],
                "metallicFactor" : 0
            }
        },
        {
            "doubleSided" : true,
            "name" : "demon eyes",
            "pbrMetallicRoughness" : {
                "baseColorFactor" : [
                    0,
                    0,
                    0,
                    1
                ],
                "metallicFactor" : 0
            }
        },
        {
            "doubleSided" : true,
            "name" : "demon beard",
            "pbrMetallicRoughness" : {
                "baseColorFactor" : [
                    0.1226109191775322,
                    0.1226109191775322,
                    0.1226109191775322,
                    1
                ],
                "metallicFactor" : 0,
                "roughnessFactor" : 0.7018348574638367
            }
        },
        {
            "doubleSided" : true,
            "name" : "demon horns",
            "pbrMetallicRoughness" : {
                "baseColorFactor" : [
                    0,
                    0,
                    0,
                    1
                ],
                "metallicFactor" : 0
            }
        }
    ],
    "meshes" : [
        {
            "name" : "Sphere",
            "primitives" : [
                {
                    "attributes" : {
                        "POSITION" : 0,
                        "NORMAL" : 1,
                        "TEXCOORD_0" : 2
                    },
                    "indices" : 3,
                    "material" : 0
                }
            ]
        },
        {
            "name" : "Cylinder",
            "primitives" : [
                {
                    "attributes" : {
                        "POSITION" : 4,
                        "NORMAL" : 5,
                        "TEXCOORD_0" : 6
                    },
                    "indices" : 7,
                    "material" : 1
                }
            ]
        },
        {
            "name" : "Cube",
            "primitives" : [
                {
                    "attributes" : {
                        "POSITION" : 8,
                        "NORMAL" : 9,
                        "TEXCOORD_0" : 10
                    },
                    "indices" : 11,
                    "material" : 2
                }
            ]
        },
        {
            "name" : "Cylinder.001",
            "primitives" : [
                {
                    "attributes" : {
                        "POSITION" : 12,
                        "NORMAL" : 13,
                        "TEXCOORD_0" : 14
                    },
                    "indices" : 15,
                    "material" : 3
                }
            ]
        }
    ],
    "accessors" : [
        {
            "bufferView" : 0,
            "componentType" : 5126,
            "count" : 559,
            "max" : [
                0.49999985098838806,
                0.5,
                0.4999997019767761
            ],
            "min" : [
                -0.4999995231628418,
                -0.5,
                -0.49999937415122986
            ],
            "type" : "VEC3"
        },
        {
            "bufferView" : 1,
            "componentType" : 5126,
            "count" : 559,
            "type" : "VEC3"
        },
        {
            "bufferView" : 2,
            "componentType" : 5126,
            "count" : 559,
            "type" : "VEC2"
        },
        {
            "bufferView" : 3,
            "componentType" : 5123,
            "count" : 2880,
            "type" : "SCALAR"
        },
        {
            "bufferView" : 4,
            "componentType" : 5126,
            "count" : 200,
            "max" : [
                0.27217110991477966,
                0.24823269248008728,
                0.5215023756027222
            ],
            "min" : [
                -0.24937859177589417,
                -0.057745561003685,
                0.3660302460193634
            ],
            "type" : "VEC3"
        },
        {
            "bufferView" : 5,
            "componentType" : 5126,
            "count" : 200,
            "type" : "VEC3"
        },
        {
            "bufferView" : 6,
            "componentType" : 5126,
            "count" : 200,
            "type" : "VEC2"
        },
        {
            "bufferView" : 7,
            "componentType" : 5123,
            "count" : 552,
            "type" : "SCALAR"
        },
        {
            "bufferView" : 8,
            "componentType" : 5126,
            "count" : 1358,
            "max" : [
                0.17368784546852112,
                0.04782606288790703,
                0.11751249432563782
            ],
            "min" : [
                -0.17368783056735992,
                -0.40303152799606323,
                -0.24755673110485077
            ],
            "type" : "VEC3"
        },
        {
            "bufferView" : 9,
            "componentType" : 5126,
            "count" : 1358,
            "type" : "VEC3"
        },
        {
            "bufferView" : 10,
            "componentType" : 5126,
            "count" : 1358,
            "type" : "VEC2"
        },
        {
            "bufferView" : 11,
            "componentType" : 5123,
            "count" : 6192,
            "type" : "SCALAR"
        },
        {
            "bufferView" : 12,
            "componentType" : 5126,
            "count" : 827,
            "max" : [
                0.3298248052597046,
                0.6298230290412903,
                0.32921096682548523
            ],
            "min" : [
                -0.329824835062027,
                0.2675020098686218,
                0.10012142360210419
            ],
            "type" : "VEC3"
        },
        {
            "bufferView" : 13,
            "componentType" : 5126,
            "count" : 827,
            "type" : "VEC3"
        },
        {
            "bufferView" : 14,
            "componentType" : 5126,
            "count" : 827,
            "type" : "VEC2"
        },
        {
            "bufferView" : 15,
            "componentType" : 5123,
            "count" : 3456,
            "type" : "SCALAR"
        }
    ],
    "bufferViews" : [
        {
            "buffer" : 0,
            "byteLength" : 6708,
            "byteOffset" : 0
        },
        {
            "buffer" : 0,
            "byteLength" : 6708,
            "byteOffset" : 6708
        },
        {
            "buffer" : 0,
            "byteLength" : 4472,
            "byteOffset" : 13416
        },
        {
            "buffer" : 0,
            "byteLength" : 5760,
            "byteOffset" : 17888
        },
        {
            "buffer" : 0,
            "byteLength" : 2400,
            "byteOffset" : 23648
        },
        {
            "buffer" : 0,
            "byteLength" : 2400,
            "byteOffset" : 26048
        },
        {
            "buffer" : 0,
            "byteLength" : 1600,
            "byteOffset" : 28448
        },
        {
            "buffer" : 0,
            "byteLength" : 1104,
            "byteOffset" : 30048
        },
        {
            "buffer" : 0,
            "byteLength" : 16296,
            "byteOffset" : 31152
        },
        {
            "buffer" : 0,
            "byteLength" : 16296,
            "byteOffset" : 47448
        },
        {
            "buffer" : 0,
            "byteLength" : 10864,
            "byteOffset" : 63744
        },
        {
            "buffer" : 0,
            "byteLength" : 12384,
            "byteOffset" : 74608
        },
        {
            "buffer" : 0,
            "byteLength" : 9924,
            "byteOffset" : 86992
        },
        {
            "buffer" : 0,
            "byteLength" : 9924,
            "byteOffset" : 96916
        },
        {
            "buffer" : 0,
            "byteLength" : 6616,
            "byteOffset" : 106840
        },
        {
            "buffer" : 0,
            "byteLength" : 6912,
            "byteOffset" : 113456
        }
    ],
    "buffers" : [
        {
            "byteLength" : 120368,
            "uri" : "data:application/octet-stream;base64,"
        }
    ]
}
