{
    "asset" : {
        "generator" : "Khronos glTF Blender I/O v1.8.19",
        "version" : "2.0"
    },
    "scene" : 0,
    "scenes" : [
        {
            "name" : "Scene",
            "nodes" : [
                0
            ]
        }
    ],
    "nodes" : [
        {
            "mesh" : 0,
            "name" : "skull",
            "rotation" : [
                0,
                1,
                0,
                0
            ],
            "scale" : [
                -0.11107300966978073,
                -0.24380412697792053,
                -0.11107300966978073
            ],
            "translation" : [
                0.001212090253829956,
                1.6137104034423828,
                -0.012824520468711853
            ]
        }
    ],
    "materials" : [
        {
            "doubleSided" : true,
            "name" : "MatSkelleton",
            "pbrMetallicRoughness" : {
                "baseColorFactor" : [
                    0.267930805683136,
                    0.2836718261241913,
                    0.22133219242095947,
                    1
                ],
                "metallicFactor" : 0
            }
        },
        {
            "doubleSided" : true,
            "name" : "MatSkelletonteeth",
            "pbrMetallicRoughness" : {
                "baseColorFactor" : [
                    0.3749932646751404,
                    0.35900914669036865,
                    0.17617623507976532,
                    1
                ],
                "metallicFactor" : 0,
                "roughnessFactor" : 0.3454545736312866
            }
        }
    ],
    "meshes" : [
        {
            "name" : "Cube",
            "primitives" : [
                {
                    "attributes" : {
                        "POSITION" : 0,
                        "NORMAL" : 1,
                        "TEXCOORD_0" : 2
                    },
                    "indices" : 3,
                    "material" : 0
                },
                {
                    "attributes" : {
                        "POSITION" : 4,
                        "NORMAL" : 5,
                        "TEXCOORD_0" : 6
                    },
                    "indices" : 7,
                    "material" : 1
                }
            ]
        }
    ],
    "accessors" : [
        {
            "bufferView" : 0,
            "componentType" : 5126,
            "count" : 2517,
            "max" : [
                1.4274832010269165,
                0.8738546371459961,
                1.9419854879379272
            ],
            "min" : [
                -1.4274832010269165,
                -1.0167269706726074,
                -2.2114858627319336
            ],
            "type" : "VEC3"
        },
        {
            "bufferView" : 1,
            "componentType" : 5126,
            "count" : 2517,
            "type" : "VEC3"
        },
        {
            "bufferView" : 2,
            "componentType" : 5126,
            "count" : 2517,
            "type" : "VEC2"
        },
        {
            "bufferView" : 3,
            "componentType" : 5123,
            "count" : 13188,
            "type" : "SCALAR"
        },
        {
            "bufferView" : 4,
            "componentType" : 5126,
            "count" : 651,
            "max" : [
                0.8742724657058716,
                0.61875319480896,
                1.8828954696655273
            ],
            "min" : [
                -0.8724536299705505,
                0.3684123456478119,
                0.8126721382141113
            ],
            "type" : "VEC3"
        },
        {
            "bufferView" : 5,
            "componentType" : 5126,
            "count" : 651,
            "type" : "VEC3"
        },
        {
            "bufferView" : 6,
            "componentType" : 5126,
            "count" : 651,
            "type" : "VEC2"
        },
        {
            "bufferView" : 7,
            "componentType" : 5123,
            "count" : 2511,
            "type" : "SCALAR"
        }
    ],
    "bufferViews" : [
        {
            "buffer" : 0,
            "byteLength" : 30204,
            "byteOffset" : 0
        },
        {
            "buffer" : 0,
            "byteLength" : 30204,
            "byteOffset" : 30204
        },
        {
            "buffer" : 0,
            "byteLength" : 20136,
            "byteOffset" : 60408
        },
        {
            "buffer" : 0,
            "byteLength" : 26376,
            "byteOffset" : 80544
        },
        {
            "buffer" : 0,
            "byteLength" : 7812,
            "byteOffset" : 106920
        },
        {
            "buffer" : 0,
            "byteLength" : 7812,
            "byteOffset" : 114732
        },
        {
            "buffer" : 0,
            "byteLength" : 5208,
            "byteOffset" : 122544
        },
        {
            "buffer" : 0,
            "byteLength" : 5022,
            "byteOffset" : 127752
        }
    ],
    "buffers" : [
        {
            "byteLength" : 132776,
            "uri" : "data:application/octet-stream;base64,"
        }
    ]
}
