{
    "asset" : {
        "generator" : "Khronos glTF Blender I/O v1.8.19",
        "version" : "2.0"
    },
    "scene" : 0,
    "scenes" : [
        {
            "name" : "Scene",
            "nodes" : [
                0
            ]
        }
    ],
    "nodes" : [
        {
            "mesh" : 0,
            "name" : "Cylinder"
        }
    ],
    "materials" : [
        {
            "doubleSided" : true,
            "name" : "Material.001",
            "pbrMetallicRoughness" : {
                "baseColorFactor" : [
                    0.30297648906707764,
                    0.30297648906707764,
                    0.30297648906707764,
                    1
                ],
                "roughnessFactor" : 0.3545454740524292
            }
        },
        {
            "doubleSided" : true,
            "name" : "Material",
            "pbrMetallicRoughness" : {
                "baseColorFactor" : [
                    0.11263564974069595,
                    0.023413943126797676,
                    0.0019531843718141317,
                    1
                ],
                "metallicFactor" : 0.0181818176060915
            }
        }
    ],
    "meshes" : [
        {
            "name" : "Cylinder",
            "primitives" : [
                {
                    "attributes" : {
                        "POSITION" : 0,
                        "NORMAL" : 1,
                        "TEXCOORD_0" : 2
                    },
                    "indices" : 3,
                    "material" : 0
                },
                {
                    "attributes" : {
                        "POSITION" : 4,
                        "NORMAL" : 5,
                        "TEXCOORD_0" : 6
                    },
                    "indices" : 7,
                    "material" : 1
                }
            ]
        }
    ],
    "accessors" : [
        {
            "bufferView" : 0,
            "componentType" : 5126,
            "count" : 16388,
            "max" : [
                0.7359553575515747,
                1.899999976158142,
                0.7199999690055847
            ],
            "min" : [
                -0.7200000286102295,
                0.10000000149011612,
                -0.7199999690055847
            ],
            "type" : "VEC3"
        },
        {
            "bufferView" : 1,
            "componentType" : 5126,
            "count" : 16388,
            "type" : "VEC3"
        },
        {
            "bufferView" : 2,
            "componentType" : 5126,
            "count" : 16388,
            "type" : "VEC2"
        },
        {
            "bufferView" : 3,
            "componentType" : 5123,
            "count" : 26544,
            "type" : "SCALAR"
        },
        {
            "bufferView" : 4,
            "componentType" : 5126,
            "count" : 96,
            "max" : [
                0.75,
                1.9999996423721313,
                0.75
            ],
            "min" : [
                -0.75,
                0,
                -0.75
            ],
            "type" : "VEC3"
        },
        {
            "bufferView" : 5,
            "componentType" : 5126,
            "count" : 96,
            "type" : "VEC3"
        },
        {
            "bufferView" : 6,
            "componentType" : 5126,
            "count" : 96,
            "type" : "VEC2"
        },
        {
            "bufferView" : 7,
            "componentType" : 5123,
            "count" : 264,
            "type" : "SCALAR"
        }
    ],
    "bufferViews" : [
        {
            "buffer" : 0,
            "byteLength" : 196656,
            "byteOffset" : 0
        },
        {
            "buffer" : 0,
            "byteLength" : 196656,
            "byteOffset" : 196656
        },
        {
            "buffer" : 0,
            "byteLength" : 131104,
            "byteOffset" : 393312
        },
        {
            "buffer" : 0,
            "byteLength" : 53088,
            "byteOffset" : 524416
        },
        {
            "buffer" : 0,
            "byteLength" : 1152,
            "byteOffset" : 577504
        },
        {
            "buffer" : 0,
            "byteLength" : 1152,
            "byteOffset" : 578656
        },
        {
            "buffer" : 0,
            "byteLength" : 768,
            "byteOffset" : 579808
        },
        {
            "buffer" : 0,
            "byteLength" : 528,
            "byteOffset" : 580576
        }
    ],
    "buffers" : [
        {
            "byteLength" : 581104,
            "uri" : "data:application/octet-stream;base64,"
        }
    ]
}
