{
    "asset" : {
        "generator" : "Khronos glTF Blender I/O v1.8.19",
        "version" : "2.0"
    },
    "scene" : 0,
    "scenes" : [
        {
            "name" : "Scene",
            "nodes" : [
                0
            ]
        }
    ],
    "nodes" : [
        {
            "mesh" : 0,
            "name" : "floorsolid 50x50 f"
        }
    ],
    "materials" : [
        {
            "doubleSided" : true,
            "name" : "stoneLight.003",
            "pbrMetallicRoughness" : {
                "baseColorFactor" : [
                    0.03411146253347397,
                    0.03411146253347397,
                    0.03411146253347397,
                    1
                ],
                "metallicFactor" : 0,
                "roughnessFactor" : 0.8394495248794556
            }
        },
        {
            "doubleSided" : true,
            "name" : "stoneDark..004",
            "pbrMetallicRoughness" : {
                "baseColorFactor" : [
                    0.004255167208611965,
                    0.004255167208611965,
                    0.004255167208611965,
                    1
                ],
                "metallicFactor" : 0,
                "roughnessFactor" : 0.46330273151397705
            }
        },
        {
            "doubleSided" : true,
            "name" : "stoneDark..005",
            "pbrMetallicRoughness" : {
                "baseColorFactor" : [
                    0.004255167208611965,
                    0.004255167208611965,
                    0.004255167208611965,
                    1
                ],
                "metallicFactor" : 0,
                "roughnessFactor" : 0.46330273151397705
            }
        },
        {
            "doubleSided" : true,
            "name" : "stoneDark..006",
            "pbrMetallicRoughness" : {
                "baseColorFactor" : [
                    0.004255167208611965,
                    0.004255167208611965,
                    0.004255167208611965,
                    1
                ],
                "metallicFactor" : 0,
                "roughnessFactor" : 0.46330273151397705
            }
        }
    ],
    "meshes" : [
        {
            "name" : "Cube.005",
            "primitives" : [
                {
                    "attributes" : {
                        "POSITION" : 0,
                        "NORMAL" : 1,
                        "TEXCOORD_0" : 2
                    },
                    "indices" : 3,
                    "material" : 0
                },
                {
                    "attributes" : {
                        "POSITION" : 4,
                        "NORMAL" : 5,
                        "TEXCOORD_0" : 6
                    },
                    "indices" : 7,
                    "material" : 1
                },
                {
                    "attributes" : {
                        "POSITION" : 8,
                        "NORMAL" : 9,
                        "TEXCOORD_0" : 10
                    },
                    "indices" : 11,
                    "material" : 2
                },
                {
                    "attributes" : {
                        "POSITION" : 12,
                        "NORMAL" : 13,
                        "TEXCOORD_0" : 14
                    },
                    "indices" : 15,
                    "material" : 3
                }
            ]
        }
    ],
    "accessors" : [
        {
            "bufferView" : 0,
            "componentType" : 5126,
            "count" : 24,
            "max" : [
                25,
                0.5,
                25
            ],
            "min" : [
                -25,
                -0.5,
                -25
            ],
            "type" : "VEC3"
        },
        {
            "bufferView" : 1,
            "componentType" : 5126,
            "count" : 24,
            "type" : "VEC3"
        },
        {
            "bufferView" : 2,
            "componentType" : 5126,
            "count" : 24,
            "type" : "VEC2"
        },
        {
            "bufferView" : 3,
            "componentType" : 5123,
            "count" : 36,
            "type" : "SCALAR"
        },
        {
            "bufferView" : 4,
            "componentType" : 5126,
            "count" : 1160,
            "max" : [
                23.35488510131836,
                0.550000011920929,
                21.6147403717041
            ],
            "min" : [
                -21.105926513671875,
                -0.550000011920929,
                -22.489910125732422
            ],
            "type" : "VEC3"
        },
        {
            "bufferView" : 5,
            "componentType" : 5126,
            "count" : 1160,
            "type" : "VEC3"
        },
        {
            "bufferView" : 6,
            "componentType" : 5126,
            "count" : 1160,
            "type" : "VEC2"
        },
        {
            "bufferView" : 7,
            "componentType" : 5123,
            "count" : 1740,
            "type" : "SCALAR"
        },
        {
            "bufferView" : 8,
            "componentType" : 5126,
            "count" : 760,
            "max" : [
                22.475418090820312,
                0.550000011920929,
                21.797931671142578
            ],
            "min" : [
                -19.380062103271484,
                -0.550000011920929,
                -23.11676597595215
            ],
            "type" : "VEC3"
        },
        {
            "bufferView" : 9,
            "componentType" : 5126,
            "count" : 760,
            "type" : "VEC3"
        },
        {
            "bufferView" : 10,
            "componentType" : 5126,
            "count" : 760,
            "type" : "VEC2"
        },
        {
            "bufferView" : 11,
            "componentType" : 5123,
            "count" : 1140,
            "type" : "SCALAR"
        },
        {
            "bufferView" : 12,
            "componentType" : 5126,
            "count" : 440,
            "max" : [
                16.76045036315918,
                0.550000011920929,
                20.06975746154785
            ],
            "min" : [
                -21.596193313598633,
                -0.550000011920929,
                -20.2651424407959
            ],
            "type" : "VEC3"
        },
        {
            "bufferView" : 13,
            "componentType" : 5126,
            "count" : 440,
            "type" : "VEC3"
        },
        {
            "bufferView" : 14,
            "componentType" : 5126,
            "count" : 440,
            "type" : "VEC2"
        },
        {
            "bufferView" : 15,
            "componentType" : 5123,
            "count" : 660,
            "type" : "SCALAR"
        }
    ],
    "bufferViews" : [
        {
            "buffer" : 0,
            "byteLength" : 288,
            "byteOffset" : 0
        },
        {
            "buffer" : 0,
            "byteLength" : 288,
            "byteOffset" : 288
        },
        {
            "buffer" : 0,
            "byteLength" : 192,
            "byteOffset" : 576
        },
        {
            "buffer" : 0,
            "byteLength" : 72,
            "byteOffset" : 768
        },
        {
            "buffer" : 0,
            "byteLength" : 13920,
            "byteOffset" : 840
        },
        {
            "buffer" : 0,
            "byteLength" : 13920,
            "byteOffset" : 14760
        },
        {
            "buffer" : 0,
            "byteLength" : 9280,
            "byteOffset" : 28680
        },
        {
            "buffer" : 0,
            "byteLength" : 3480,
            "byteOffset" : 37960
        },
        {
            "buffer" : 0,
            "byteLength" : 9120,
            "byteOffset" : 41440
        },
        {
            "buffer" : 0,
            "byteLength" : 9120,
            "byteOffset" : 50560
        },
        {
            "buffer" : 0,
            "byteLength" : 6080,
            "byteOffset" : 59680
        },
        {
            "buffer" : 0,
            "byteLength" : 2280,
            "byteOffset" : 65760
        },
        {
            "buffer" : 0,
            "byteLength" : 5280,
            "byteOffset" : 68040
        },
        {
            "buffer" : 0,
            "byteLength" : 5280,
            "byteOffset" : 73320
        },
        {
            "buffer" : 0,
            "byteLength" : 3520,
            "byteOffset" : 78600
        },
        {
            "buffer" : 0,
            "byteLength" : 1320,
            "byteOffset" : 82120
        }
    ],
    "buffers" : [
        {
            "byteLength" : 83440,
            "uri" : "data:application/octet-stream;base64,"
        }
    ]
}
