{
    "asset" : {
        "generator" : "Khronos glTF Blender I/O v1.8.19",
        "version" : "2.0"
    },
    "scene" : 0,
    "scenes" : [
        {
            "name" : "Scene",
            "nodes" : [
                0
            ]
        }
    ],
    "nodes" : [
        {
            "mesh" : 0,
            "name" : "floorsolid 4x4 f"
        }
    ],
    "materials" : [
        {
            "doubleSided" : true,
            "name" : "stoneLight",
            "pbrMetallicRoughness" : {
                "baseColorFactor" : [
                    0.03411146253347397,
                    0.03411146253347397,
                    0.03411146253347397,
                    1
                ],
                "metallicFactor" : 0,
                "roughnessFactor" : 0.8394495248794556
            }
        },
        {
            "doubleSided" : true,
            "name" : "stoneDark.",
            "pbrMetallicRoughness" : {
                "baseColorFactor" : [
                    0.004255167208611965,
                    0.004255167208611965,
                    0.004255167208611965,
                    1
                ],
                "metallicFactor" : 0,
                "roughnessFactor" : 0.46330273151397705
            }
        }
    ],
    "meshes" : [
        {
            "name" : "Cube.002",
            "primitives" : [
                {
                    "attributes" : {
                        "POSITION" : 0,
                        "NORMAL" : 1,
                        "TEXCOORD_0" : 2
                    },
                    "indices" : 3,
                    "material" : 0
                },
                {
                    "attributes" : {
                        "POSITION" : 4,
                        "NORMAL" : 5,
                        "TEXCOORD_0" : 6
                    },
                    "indices" : 7,
                    "material" : 1
                }
            ]
        }
    ],
    "accessors" : [
        {
            "bufferView" : 0,
            "componentType" : 5126,
            "count" : 24,
            "max" : [
                2,
                0.5,
                2
            ],
            "min" : [
                -2,
                -0.5,
                -2
            ],
            "type" : "VEC3"
        },
        {
            "bufferView" : 1,
            "componentType" : 5126,
            "count" : 24,
            "type" : "VEC3"
        },
        {
            "bufferView" : 2,
            "componentType" : 5126,
            "count" : 24,
            "type" : "VEC2"
        },
        {
            "bufferView" : 3,
            "componentType" : 5123,
            "count" : 36,
            "type" : "SCALAR"
        },
        {
            "bufferView" : 4,
            "componentType" : 5126,
            "count" : 408,
            "max" : [
                2.3199052810668945,
                0.550000011920929,
                2.850872278213501
            ],
            "min" : [
                -2.6449332237243652,
                -0.550000011920929,
                -2.8945975303649902
            ],
            "type" : "VEC3"
        },
        {
            "bufferView" : 5,
            "componentType" : 5126,
            "count" : 408,
            "type" : "VEC3"
        },
        {
            "bufferView" : 6,
            "componentType" : 5126,
            "count" : 408,
            "type" : "VEC2"
        },
        {
            "bufferView" : 7,
            "componentType" : 5123,
            "count" : 612,
            "type" : "SCALAR"
        }
    ],
    "bufferViews" : [
        {
            "buffer" : 0,
            "byteLength" : 288,
            "byteOffset" : 0
        },
        {
            "buffer" : 0,
            "byteLength" : 288,
            "byteOffset" : 288
        },
        {
            "buffer" : 0,
            "byteLength" : 192,
            "byteOffset" : 576
        },
        {
            "buffer" : 0,
            "byteLength" : 72,
            "byteOffset" : 768
        },
        {
            "buffer" : 0,
            "byteLength" : 4896,
            "byteOffset" : 840
        },
        {
            "buffer" : 0,
            "byteLength" : 4896,
            "byteOffset" : 5736
        },
        {
            "buffer" : 0,
            "byteLength" : 3264,
            "byteOffset" : 10632
        },
        {
            "buffer" : 0,
            "byteLength" : 1224,
            "byteOffset" : 13896
        }
    ],
    "buffers" : [
        {
            "byteLength" : 15120,
            "uri" : "data:application/octet-stream;base64,"
        }
    ]
}
