{
    "asset" : {
        "generator" : "Khronos glTF Blender I/O v1.8.19",
        "version" : "2.0"
    },
    "scene" : 0,
    "scenes" : [
        {
            "name" : "Scene",
            "nodes" : [
                0
            ]
        }
    ],
    "nodes" : [
        {
            "mesh" : 0,
            "name" : "wall3",
            "translation" : [
                -1,
                0,
                0
            ]
        }
    ],
    "materials" : [
        {
            "doubleSided" : true,
            "name" : "stoneDark.",
            "pbrMetallicRoughness" : {
                "baseColorFactor" : [
                    0.004255167208611965,
                    0.004255167208611965,
                    0.004255167208611965,
                    1
                ],
                "metallicFactor" : 0,
                "roughnessFactor" : 0.46330273151397705
            }
        },
        {
            "doubleSided" : true,
            "name" : "stoneLight",
            "pbrMetallicRoughness" : {
                "baseColorFactor" : [
                    0.03411146253347397,
                    0.03411146253347397,
                    0.03411146253347397,
                    1
                ],
                "metallicFactor" : 0,
                "roughnessFactor" : 0.8394495248794556
            }
        },
        {
            "doubleSided" : true,
            "name" : "ladder dark Brown",
            "pbrMetallicRoughness" : {
                "baseColorFactor" : [
                    0.05921801179647446,
                    0.04230353236198425,
                    0.020693762227892876,
                    1
                ],
                "metallicFactor" : 0
            }
        },
        {
            "doubleSided" : true,
            "name" : "iorn",
            "pbrMetallicRoughness" : {
                "baseColorFactor" : [
                    0.06950274109840393,
                    0.06950274109840393,
                    0.06950274109840393,
                    1
                ],
                "roughnessFactor" : 0.2954545319080353
            }
        },
        {
            "doubleSided" : true,
            "name" : "cupper",
            "pbrMetallicRoughness" : {
                "baseColorFactor" : [
                    0.32584890723228455,
                    0.1700119525194168,
                    0.0761028453707695,
                    1
                ],
                "roughnessFactor" : 0.2954545319080353
            }
        },
        {
            "doubleSided" : true,
            "emissiveFactor" : [
                1,
                0.18047882243990898,
                0
            ],
            "name" : "fire",
            "pbrMetallicRoughness" : {
                "baseColorFactor" : [
                    0.8000000715255737,
                    0,
                    0.007649767678231001,
                    1
                ],
                "metallicFactor" : 0
            }
        }
    ],
    "meshes" : [
        {
            "name" : "Cube.006",
            "primitives" : [
                {
                    "attributes" : {
                        "POSITION" : 0,
                        "NORMAL" : 1,
                        "TEXCOORD_0" : 2
                    },
                    "indices" : 3,
                    "material" : 0
                },
                {
                    "attributes" : {
                        "POSITION" : 4,
                        "NORMAL" : 5,
                        "TEXCOORD_0" : 6
                    },
                    "indices" : 7,
                    "material" : 1
                },
                {
                    "attributes" : {
                        "POSITION" : 8,
                        "NORMAL" : 9,
                        "TEXCOORD_0" : 10
                    },
                    "indices" : 11,
                    "material" : 2
                },
                {
                    "attributes" : {
                        "POSITION" : 12,
                        "NORMAL" : 13,
                        "TEXCOORD_0" : 14
                    },
                    "indices" : 15,
                    "material" : 3
                },
                {
                    "attributes" : {
                        "POSITION" : 16,
                        "NORMAL" : 17,
                        "TEXCOORD_0" : 18
                    },
                    "indices" : 19,
                    "material" : 4
                },
                {
                    "attributes" : {
                        "POSITION" : 20,
                        "NORMAL" : 21,
                        "TEXCOORD_0" : 22
                    },
                    "indices" : 23,
                    "material" : 5
                }
            ]
        }
    ],
    "accessors" : [
        {
            "bufferView" : 0,
            "componentType" : 5126,
            "count" : 610,
            "max" : [
                1.6784967184066772,
                3,
                0.25
            ],
            "min" : [
                -0.25,
                0,
                -0.25
            ],
            "type" : "VEC3"
        },
        {
            "bufferView" : 1,
            "componentType" : 5126,
            "count" : 610,
            "type" : "VEC3"
        },
        {
            "bufferView" : 2,
            "componentType" : 5126,
            "count" : 610,
            "type" : "VEC2"
        },
        {
            "bufferView" : 3,
            "componentType" : 5123,
            "count" : 870,
            "type" : "SCALAR"
        },
        {
            "bufferView" : 4,
            "componentType" : 5126,
            "count" : 8,
            "max" : [
                2,
                3,
                0.05000004544854164
            ],
            "min" : [
                0,
                -3.725290298461914e-09,
                -0.05000004544854164
            ],
            "type" : "VEC3"
        },
        {
            "bufferView" : 5,
            "componentType" : 5126,
            "count" : 8,
            "type" : "VEC3"
        },
        {
            "bufferView" : 6,
            "componentType" : 5126,
            "count" : 8,
            "type" : "VEC2"
        },
        {
            "bufferView" : 7,
            "componentType" : 5123,
            "count" : 12,
            "type" : "SCALAR"
        },
        {
            "bufferView" : 8,
            "componentType" : 5126,
            "count" : 442,
            "max" : [
                0.03393453359603882,
                1.957924485206604,
                0.5093998312950134
            ],
            "min" : [
                -0.0524907112121582,
                1.5128445625305176,
                -0.5093998312950134
            ],
            "type" : "VEC3"
        },
        {
            "bufferView" : 9,
            "componentType" : 5126,
            "count" : 442,
            "type" : "VEC3"
        },
        {
            "bufferView" : 10,
            "componentType" : 5126,
            "count" : 442,
            "type" : "VEC2"
        },
        {
            "bufferView" : 11,
            "componentType" : 5123,
            "count" : 1620,
            "type" : "SCALAR"
        },
        {
            "bufferView" : 12,
            "componentType" : 5126,
            "count" : 550,
            "max" : [
                0.05252683162689209,
                1.9863201379776,
                0.5330249667167664
            ],
            "min" : [
                -0.0710829496383667,
                1.7153726816177368,
                -0.5330249667167664
            ],
            "type" : "VEC3"
        },
        {
            "bufferView" : 13,
            "componentType" : 5126,
            "count" : 550,
            "type" : "VEC3"
        },
        {
            "bufferView" : 14,
            "componentType" : 5126,
            "count" : 550,
            "type" : "VEC2"
        },
        {
            "bufferView" : 15,
            "componentType" : 5123,
            "count" : 1824,
            "type" : "SCALAR"
        },
        {
            "bufferView" : 16,
            "componentType" : 5126,
            "count" : 304,
            "max" : [
                0.13042426109313965,
                2.102738618850708,
                0.6344436407089233
            ],
            "min" : [
                -0.14898037910461426,
                1.960516095161438,
                -0.6344436407089233
            ],
            "type" : "VEC3"
        },
        {
            "bufferView" : 17,
            "componentType" : 5126,
            "count" : 304,
            "type" : "VEC3"
        },
        {
            "bufferView" : 18,
            "componentType" : 5126,
            "count" : 304,
            "type" : "VEC2"
        },
        {
            "bufferView" : 19,
            "componentType" : 5123,
            "count" : 1236,
            "type" : "SCALAR"
        },
        {
            "bufferView" : 20,
            "componentType" : 5126,
            "count" : 480,
            "max" : [
                0.042572736740112305,
                2.2127466201782227,
                0.565739631652832
            ],
            "min" : [
                -0.061128854751586914,
                1.9767550230026245,
                -0.565739631652832
            ],
            "type" : "VEC3"
        },
        {
            "bufferView" : 21,
            "componentType" : 5126,
            "count" : 480,
            "type" : "VEC3"
        },
        {
            "bufferView" : 22,
            "componentType" : 5126,
            "count" : 480,
            "type" : "VEC2"
        },
        {
            "bufferView" : 23,
            "componentType" : 5123,
            "count" : 480,
            "type" : "SCALAR"
        }
    ],
    "bufferViews" : [
        {
            "buffer" : 0,
            "byteLength" : 7320,
            "byteOffset" : 0
        },
        {
            "buffer" : 0,
            "byteLength" : 7320,
            "byteOffset" : 7320
        },
        {
            "buffer" : 0,
            "byteLength" : 4880,
            "byteOffset" : 14640
        },
        {
            "buffer" : 0,
            "byteLength" : 1740,
            "byteOffset" : 19520
        },
        {
            "buffer" : 0,
            "byteLength" : 96,
            "byteOffset" : 21260
        },
        {
            "buffer" : 0,
            "byteLength" : 96,
            "byteOffset" : 21356
        },
        {
            "buffer" : 0,
            "byteLength" : 64,
            "byteOffset" : 21452
        },
        {
            "buffer" : 0,
            "byteLength" : 24,
            "byteOffset" : 21516
        },
        {
            "buffer" : 0,
            "byteLength" : 5304,
            "byteOffset" : 21540
        },
        {
            "buffer" : 0,
            "byteLength" : 5304,
            "byteOffset" : 26844
        },
        {
            "buffer" : 0,
            "byteLength" : 3536,
            "byteOffset" : 32148
        },
        {
            "buffer" : 0,
            "byteLength" : 3240,
            "byteOffset" : 35684
        },
        {
            "buffer" : 0,
            "byteLength" : 6600,
            "byteOffset" : 38924
        },
        {
            "buffer" : 0,
            "byteLength" : 6600,
            "byteOffset" : 45524
        },
        {
            "buffer" : 0,
            "byteLength" : 4400,
            "byteOffset" : 52124
        },
        {
            "buffer" : 0,
            "byteLength" : 3648,
            "byteOffset" : 56524
        },
        {
            "buffer" : 0,
            "byteLength" : 3648,
            "byteOffset" : 60172
        },
        {
            "buffer" : 0,
            "byteLength" : 3648,
            "byteOffset" : 63820
        },
        {
            "buffer" : 0,
            "byteLength" : 2432,
            "byteOffset" : 67468
        },
        {
            "buffer" : 0,
            "byteLength" : 2472,
            "byteOffset" : 69900
        },
        {
            "buffer" : 0,
            "byteLength" : 5760,
            "byteOffset" : 72372
        },
        {
            "buffer" : 0,
            "byteLength" : 5760,
            "byteOffset" : 78132
        },
        {
            "buffer" : 0,
            "byteLength" : 3840,
            "byteOffset" : 83892
        },
        {
            "buffer" : 0,
            "byteLength" : 960,
            "byteOffset" : 87732
        }
    ],
    "buffers" : [
        {
            "byteLength" : 88692,
            "uri" : "data:application/octet-stream;base64,"
        }
    ]
}
