{
    "asset" : {
        "generator" : "Khronos glTF Blender I/O v1.8.19",
        "version" : "2.0"
    },
    "scene" : 0,
    "scenes" : [
        {
            "name" : "Scene",
            "nodes" : [
                0
            ]
        }
    ],
    "nodes" : [
        {
            "mesh" : 0,
            "name" : "wall2",
            "translation" : [
                -1,
                0,
                0
            ]
        }
    ],
    "materials" : [
        {
            "doubleSided" : true,
            "name" : "stoneDark..013",
            "pbrMetallicRoughness" : {
                "baseColorFactor" : [
                    0.004255167208611965,
                    0.004255167208611965,
                    0.004255167208611965,
                    1
                ],
                "metallicFactor" : 0,
                "roughnessFactor" : 0.46330273151397705
            }
        },
        {
            "doubleSided" : true,
            "name" : "stoneLight.013",
            "pbrMetallicRoughness" : {
                "baseColorFactor" : [
                    0.03411146253347397,
                    0.03411146253347397,
                    0.03411146253347397,
                    1
                ],
                "metallicFactor" : 0,
                "roughnessFactor" : 0.8394495248794556
            }
        }
    ],
    "meshes" : [
        {
            "name" : "Cube.079",
            "primitives" : [
                {
                    "attributes" : {
                        "POSITION" : 0,
                        "NORMAL" : 1,
                        "TEXCOORD_0" : 2
                    },
                    "indices" : 3,
                    "material" : 0
                },
                {
                    "attributes" : {
                        "POSITION" : 4,
                        "NORMAL" : 5,
                        "TEXCOORD_0" : 6
                    },
                    "indices" : 7,
                    "material" : 1
                }
            ]
        }
    ],
    "accessors" : [
        {
            "bufferView" : 0,
            "componentType" : 5126,
            "count" : 610,
            "max" : [
                1.6784967184066772,
                3,
                0.25
            ],
            "min" : [
                -0.25,
                0,
                -0.25
            ],
            "type" : "VEC3"
        },
        {
            "bufferView" : 1,
            "componentType" : 5126,
            "count" : 610,
            "type" : "VEC3"
        },
        {
            "bufferView" : 2,
            "componentType" : 5126,
            "count" : 610,
            "type" : "VEC2"
        },
        {
            "bufferView" : 3,
            "componentType" : 5123,
            "count" : 870,
            "type" : "SCALAR"
        },
        {
            "bufferView" : 4,
            "componentType" : 5126,
            "count" : 8,
            "max" : [
                2,
                3,
                0.05000004544854164
            ],
            "min" : [
                0,
                -3.725290298461914e-09,
                -0.05000004544854164
            ],
            "type" : "VEC3"
        },
        {
            "bufferView" : 5,
            "componentType" : 5126,
            "count" : 8,
            "type" : "VEC3"
        },
        {
            "bufferView" : 6,
            "componentType" : 5126,
            "count" : 8,
            "type" : "VEC2"
        },
        {
            "bufferView" : 7,
            "componentType" : 5123,
            "count" : 12,
            "type" : "SCALAR"
        }
    ],
    "bufferViews" : [
        {
            "buffer" : 0,
            "byteLength" : 7320,
            "byteOffset" : 0
        },
        {
            "buffer" : 0,
            "byteLength" : 7320,
            "byteOffset" : 7320
        },
        {
            "buffer" : 0,
            "byteLength" : 4880,
            "byteOffset" : 14640
        },
        {
            "buffer" : 0,
            "byteLength" : 1740,
            "byteOffset" : 19520
        },
        {
            "buffer" : 0,
            "byteLength" : 96,
            "byteOffset" : 21260
        },
        {
            "buffer" : 0,
            "byteLength" : 96,
            "byteOffset" : 21356
        },
        {
            "buffer" : 0,
            "byteLength" : 64,
            "byteOffset" : 21452
        },
        {
            "buffer" : 0,
            "byteLength" : 24,
            "byteOffset" : 21516
        }
    ],
    "buffers" : [
        {
            "byteLength" : 21540,
            "uri" : "data:application/octet-stream;base64,"
        }
    ]
}
