{
    "asset" : {
        "generator" : "Khronos glTF Blender I/O v1.8.19",
        "version" : "2.0"
    },
    "scene" : 0,
    "scenes" : [
        {
            "name" : "Scene",
            "nodes" : [
                0
            ]
        }
    ],
    "nodes" : [
        {
            "mesh" : 0,
            "name" : "Cube",
            "rotation" : [
                -0.5,
                0.5,
                0.5,
                0.4999999701976776
            ]
        }
    ],
    "materials" : [
        {
            "doubleSided" : true,
            "name" : "demon blade blade",
            "pbrMetallicRoughness" : {
                "baseColorFactor" : [
                    0.16402091085910797,
                    0.16402091085910797,
                    0.16402091085910797,
                    1
                ],
                "roughnessFactor" : 0.20000001788139343
            }
        },
        {
            "doubleSided" : true,
            "name" : "demon blade copper",
            "pbrMetallicRoughness" : {
                "baseColorFactor" : [
                    0.2577740550041199,
                    0.07404070347547531,
                    0.006917066406458616,
                    1
                ],
                "roughnessFactor" : 0.37727272510528564
            }
        },
        {
            "doubleSided" : true,
            "name" : "demon blade handel",
            "pbrMetallicRoughness" : {
                "baseColorFactor" : [
                    0.02623528055846691,
                    0.006338932551443577,
                    0.002189513761550188,
                    1
                ],
                "metallicFactor" : 0,
                "roughnessFactor" : 0.800000011920929
            }
        }
    ],
    "meshes" : [
        {
            "name" : "Cube",
            "primitives" : [
                {
                    "attributes" : {
                        "POSITION" : 0,
                        "NORMAL" : 1,
                        "TEXCOORD_0" : 2
                    },
                    "indices" : 3,
                    "material" : 0
                },
                {
                    "attributes" : {
                        "POSITION" : 4,
                        "NORMAL" : 5,
                        "TEXCOORD_0" : 6
                    },
                    "indices" : 7,
                    "material" : 1
                },
                {
                    "attributes" : {
                        "POSITION" : 8,
                        "NORMAL" : 9,
                        "TEXCOORD_0" : 10
                    },
                    "indices" : 11,
                    "material" : 2
                }
            ]
        }
    ],
    "accessors" : [
        {
            "bufferView" : 0,
            "componentType" : 5126,
            "count" : 174,
            "max" : [
                0.10000002384185791,
                0.025000005960464478,
                0.8525459170341492
            ],
            "min" : [
                -0.10000002384185791,
                -0.025000005960464478,
                0.10090672969818115
            ],
            "type" : "VEC3"
        },
        {
            "bufferView" : 1,
            "componentType" : 5126,
            "count" : 174,
            "type" : "VEC3"
        },
        {
            "bufferView" : 2,
            "componentType" : 5126,
            "count" : 174,
            "type" : "VEC2"
        },
        {
            "bufferView" : 3,
            "componentType" : 5123,
            "count" : 636,
            "type" : "SCALAR"
        },
        {
            "bufferView" : 4,
            "componentType" : 5126,
            "count" : 124,
            "max" : [
                0.18000005185604095,
                0.05000000074505806,
                0.10090672969818115
            ],
            "min" : [
                -0.18000005185604095,
                -0.05000000074505806,
                -0.14909330010414124
            ],
            "type" : "VEC3"
        },
        {
            "bufferView" : 5,
            "componentType" : 5126,
            "count" : 124,
            "type" : "VEC3"
        },
        {
            "bufferView" : 6,
            "componentType" : 5126,
            "count" : 124,
            "type" : "VEC2"
        },
        {
            "bufferView" : 7,
            "componentType" : 5123,
            "count" : 552,
            "type" : "SCALAR"
        },
        {
            "bufferView" : 8,
            "componentType" : 5126,
            "count" : 50,
            "max" : [
                0.02499999850988388,
                0.025000013411045074,
                0.10090669989585876
            ],
            "min" : [
                -0.02499999850988388,
                -0.025000013411045074,
                -0.09909328818321228
            ],
            "type" : "VEC3"
        },
        {
            "bufferView" : 9,
            "componentType" : 5126,
            "count" : 50,
            "type" : "VEC3"
        },
        {
            "bufferView" : 10,
            "componentType" : 5126,
            "count" : 50,
            "type" : "VEC2"
        },
        {
            "bufferView" : 11,
            "componentType" : 5123,
            "count" : 132,
            "type" : "SCALAR"
        }
    ],
    "bufferViews" : [
        {
            "buffer" : 0,
            "byteLength" : 2088,
            "byteOffset" : 0
        },
        {
            "buffer" : 0,
            "byteLength" : 2088,
            "byteOffset" : 2088
        },
        {
            "buffer" : 0,
            "byteLength" : 1392,
            "byteOffset" : 4176
        },
        {
            "buffer" : 0,
            "byteLength" : 1272,
            "byteOffset" : 5568
        },
        {
            "buffer" : 0,
            "byteLength" : 1488,
            "byteOffset" : 6840
        },
        {
            "buffer" : 0,
            "byteLength" : 1488,
            "byteOffset" : 8328
        },
        {
            "buffer" : 0,
            "byteLength" : 992,
            "byteOffset" : 9816
        },
        {
            "buffer" : 0,
            "byteLength" : 1104,
            "byteOffset" : 10808
        },
        {
            "buffer" : 0,
            "byteLength" : 600,
            "byteOffset" : 11912
        },
        {
            "buffer" : 0,
            "byteLength" : 600,
            "byteOffset" : 12512
        },
        {
            "buffer" : 0,
            "byteLength" : 400,
            "byteOffset" : 13112
        },
        {
            "buffer" : 0,
            "byteLength" : 264,
            "byteOffset" : 13512
        }
    ],
    "buffers" : [
        {
            "byteLength" : 13776,
            "uri" : "data:application/octet-stream;base64,"
        }
    ]
}
