{
    "asset" : {
        "generator" : "Khronos glTF Blender I/O v1.8.19",
        "version" : "2.0"
    },
    "scene" : 0,
    "scenes" : [
        {
            "name" : "Scene",
            "nodes" : [
                0,
                1
            ]
        }
    ],
    "nodes" : [
        {
            "mesh" : 0,
            "name" : "door"
        },
        {
            "mesh" : 1,
            "name" : "door is active mesh",
            "rotation" : [
                0.7071068286895752,
                0,
                0,
                0.7071068286895752
            ]
        }
    ],
    "materials" : [
        {
            "doubleSided" : true,
            "name" : "arch",
            "pbrMetallicRoughness" : {
                "baseColorFactor" : [
                    0.046961765736341476,
                    0.046961765736341476,
                    0.046961765736341476,
                    1
                ],
                "roughnessFactor" : 0.4000000059604645
            }
        }
    ],
    "meshes" : [
        {
            "name" : "Plane.031",
            "primitives" : [
                {
                    "attributes" : {
                        "POSITION" : 0,
                        "NORMAL" : 1,
                        "TEXCOORD_0" : 2
                    },
                    "indices" : 3,
                    "material" : 0
                }
            ]
        },
        {
            "name" : "Plane",
            "primitives" : [
                {
                    "attributes" : {
                        "POSITION" : 4,
                        "NORMAL" : 5,
                        "TEXCOORD_0" : 6
                    },
                    "indices" : 7
                }
            ]
        }
    ],
    "accessors" : [
        {
            "bufferView" : 0,
            "componentType" : 5126,
            "count" : 1930,
            "max" : [
                0.836510956287384,
                2.503571033477783,
                0.23619216680526733
            ],
            "min" : [
                -0.836510956287384,
                -0.0006173849105834961,
                -0.23619216680526733
            ],
            "type" : "VEC3"
        },
        {
            "bufferView" : 1,
            "componentType" : 5126,
            "count" : 1930,
            "type" : "VEC3"
        },
        {
            "bufferView" : 2,
            "componentType" : 5126,
            "count" : 1930,
            "type" : "VEC2"
        },
        {
            "bufferView" : 3,
            "componentType" : 5123,
            "count" : 3492,
            "type" : "SCALAR"
        },
        {
            "bufferView" : 4,
            "componentType" : 5126,
            "count" : 20,
            "max" : [
                0.694117546081543,
                -4.371138828673793e-08,
                0
            ],
            "min" : [
                -0.7159662246704102,
                -6.185712919659636e-08,
                -2.415126323699951
            ],
            "type" : "VEC3"
        },
        {
            "bufferView" : 5,
            "componentType" : 5126,
            "count" : 20,
            "type" : "VEC3"
        },
        {
            "bufferView" : 6,
            "componentType" : 5126,
            "count" : 20,
            "type" : "VEC2"
        },
        {
            "bufferView" : 7,
            "componentType" : 5123,
            "count" : 30,
            "type" : "SCALAR"
        }
    ],
    "bufferViews" : [
        {
            "buffer" : 0,
            "byteLength" : 23160,
            "byteOffset" : 0
        },
        {
            "buffer" : 0,
            "byteLength" : 23160,
            "byteOffset" : 23160
        },
        {
            "buffer" : 0,
            "byteLength" : 15440,
            "byteOffset" : 46320
        },
        {
            "buffer" : 0,
            "byteLength" : 6984,
            "byteOffset" : 61760
        },
        {
            "buffer" : 0,
            "byteLength" : 240,
            "byteOffset" : 68744
        },
        {
            "buffer" : 0,
            "byteLength" : 240,
            "byteOffset" : 68984
        },
        {
            "buffer" : 0,
            "byteLength" : 160,
            "byteOffset" : 69224
        },
        {
            "buffer" : 0,
            "byteLength" : 60,
            "byteOffset" : 69384
        }
    ],
    "buffers" : [
        {
            "byteLength" : 69444,
            "uri" : "data:application/octet-stream;base64,"
        }
    ]
}
